# MagicaVoxel @ Ephtracy

# group
o 

# material
mtllib rock.mtl
usemtl palette

# normals
vn -1 0 0
vn 1 0 0
vn 0 0 1
vn 0 0 -1
vn 0 -1 0
vn 0 1 0

# texcoords
vt 0.978516 0.5
vt 0.986328 0.5

# verts
v 1.1 2 -0.8
v 1.1 2 -1.1
v 1.1 2 -2.2
v 1.1 2 -2.6
v 1.1 2.1 -1.1
v 1.1 2.1 -1.4
v 1.1 2.1 -1.9
v 1.1 2.1 -2.2
v 1.1 2.2 -1.4
v 1.1 2.2 -1.9
v 1.1 2.9 -0.8
v 1.1 2.9 -2.6
v 1.2 2 -1.1
v 1.2 2 -2.2
v 1.2 2.1 -1.1
v 1.2 2.1 -1.4
v 1.2 2.1 -1.9
v 1.2 2.1 -2.2
v 1.2 2.2 -1.4
v 1.2 2.2 -1.9
v 1.3 2.9 -0.8
v 1.3 2.9 -0.9
v 1.3 2.9 -2.6
v 1.3 3 -0.8
v 1.3 3 -0.9
v 1.3 3 -2.6
v 1.5 3 -0.9
v 1.5 3 -2.6
v 1.5 3.2 -0.9
v 1.5 3.2 -2.6
v 1.7 3.2 -1.3
v 1.7 3.2 -2.5
v 1.7 3.3 -1.3
v 1.7 3.3 -2.5
v 2.2 2 -2.4
v 2.2 2 -2.5
v 2.2 2.4 -2.4
v 2.2 2.4 -2.5
v 2.4 2.2 -2.5
v 2.4 2.2 -2.6
v 2.4 2.6 -2.5
v 2.4 2.6 -2.6
v 2.6 2 -2.5
v 2.6 2 -2.6
v 2.6 2.2 -2.5
v 2.6 2.2 -2.6
v 1.7 2 -2.5
v 1.7 2 -2.6
v 1.7 2.6 -2.5
v 1.7 2.6 -2.6
v 1.9 2 -2.4
v 1.9 2 -2.5
v 1.9 2.4 -2.4
v 1.9 2.4 -2.5
v 2.7 3.2 -1.3
v 2.7 3.2 -2.5
v 2.7 3.3 -1.3
v 2.7 3.3 -2.5
v 2.8 2 -1.7
v 2.8 2 -2
v 2.8 2.5 -1.7
v 2.8 2.5 -2
v 2.9 2 -1.4
v 2.9 2 -1.7
v 2.9 2 -2
v 2.9 2 -2.4
v 2.9 2.4 -1.4
v 2.9 2.4 -1.7
v 2.9 2.4 -2
v 2.9 2.4 -2.4
v 2.9 3 -0.9
v 2.9 3 -1
v 2.9 3 -2.6
v 2.9 3.2 -0.9
v 2.9 3.2 -1
v 2.9 3.2 -2.6
v 3 2 -0.8
v 3 2 -0.9
v 3 2 -1.4
v 3 2 -2.4
v 3 2 -2.6
v 3 2.4 -1.4
v 3 2.4 -1.7
v 3 2.4 -2
v 3 2.4 -2.4
v 3 2.5 -1.7
v 3 2.5 -2
v 3 3 -0.8
v 3 3 -0.9
v 3 3 -2.6
v 1.1 2 -0.8
v 1.1 2.9 -0.8
v 1.3 2.9 -0.8
v 1.3 3 -0.8
v 3 2 -0.8
v 3 3 -0.8
v 1.5 3 -0.9
v 1.5 3.2 -0.9
v 2.9 3 -0.9
v 2.9 3.2 -0.9
v 1.7 3.2 -1.3
v 1.7 3.3 -1.3
v 2.7 3.2 -1.3
v 2.7 3.3 -1.3
v 1.1 2.1 -1.9
v 1.1 2.2 -1.9
v 1.2 2.1 -1.9
v 1.2 2.2 -1.9
v 2.8 2 -2
v 2.8 2.5 -2
v 2.9 2 -2
v 2.9 2.4 -2
v 3 2.4 -2
v 3 2.5 -2
v 1.1 2 -2.2
v 1.1 2.1 -2.2
v 1.2 2 -2.2
v 1.2 2.1 -2.2
v 2.9 2 -2.4
v 2.9 2.4 -2.4
v 3 2 -2.4
v 3 2.4 -2.4
v 1.1 2 -1.1
v 1.1 2.1 -1.1
v 1.2 2 -1.1
v 1.2 2.1 -1.1
v 1.1 2.1 -1.4
v 1.1 2.2 -1.4
v 1.2 2.1 -1.4
v 1.2 2.2 -1.4
v 2.9 2 -1.4
v 2.9 2.4 -1.4
v 3 2 -1.4
v 3 2.4 -1.4
v 2.8 2 -1.7
v 2.8 2.5 -1.7
v 2.9 2 -1.7
v 2.9 2.4 -1.7
v 3 2.4 -1.7
v 3 2.5 -1.7
v 1.9 2 -2.4
v 1.9 2.4 -2.4
v 2.2 2 -2.4
v 2.2 2.4 -2.4
v 1.7 2 -2.5
v 1.7 2.6 -2.5
v 1.7 3.2 -2.5
v 1.7 3.3 -2.5
v 1.9 2 -2.5
v 1.9 2.4 -2.5
v 2.2 2 -2.5
v 2.2 2.4 -2.5
v 2.4 2.2 -2.5
v 2.4 2.6 -2.5
v 2.6 2 -2.5
v 2.6 2.2 -2.5
v 2.7 3.2 -2.5
v 2.7 3.3 -2.5
v 1.1 2 -2.6
v 1.1 2.9 -2.6
v 1.2 2 -2.6
v 1.2 2.9 -2.6
v 1.3 2.9 -2.6
v 1.3 3 -2.6
v 1.5 3 -2.6
v 1.5 3.2 -2.6
v 1.6 3 -2.6
v 1.6 3.2 -2.6
v 1.7 2 -2.6
v 1.7 2.6 -2.6
v 2.4 2.2 -2.6
v 2.4 2.6 -2.6
v 2.6 2 -2.6
v 2.6 2.2 -2.6
v 2.9 3 -2.6
v 2.9 3.2 -2.6
v 3 2 -2.6
v 3 3 -2.6
v 1.1 2 -0.8
v 3 2 -0.8
v 1.2 2 -0.9
v 3 2 -0.9
v 1.1 2 -1.1
v 1.2 2 -1.1
v 2.9 2 -1.4
v 3 2 -1.4
v 2.8 2 -1.7
v 2.9 2 -1.7
v 2.8 2 -2
v 2.9 2 -2
v 1.1 2 -2.2
v 1.2 2 -2.2
v 1.9 2 -2.4
v 2.2 2 -2.4
v 2.9 2 -2.4
v 3 2 -2.4
v 1.7 2 -2.5
v 1.9 2 -2.5
v 2.2 2 -2.5
v 2.6 2 -2.5
v 1.1 2 -2.6
v 1.2 2 -2.6
v 1.7 2 -2.6
v 2.6 2 -2.6
v 3 2 -2.6
v 1.1 2.1 -1.1
v 1.2 2.1 -1.1
v 1.1 2.1 -1.4
v 1.2 2.1 -1.4
v 1.1 2.1 -1.9
v 1.2 2.1 -1.9
v 1.1 2.1 -2.2
v 1.2 2.1 -2.2
v 1.1 2.2 -1.4
v 1.2 2.2 -1.4
v 1.1 2.2 -1.9
v 1.2 2.2 -1.9
v 2.4 2.2 -2.5
v 2.6 2.2 -2.5
v 2.4 2.2 -2.6
v 2.6 2.2 -2.6
v 2.9 2.4 -1.4
v 3 2.4 -1.4
v 2.9 2.4 -1.7
v 3 2.4 -1.7
v 2.9 2.4 -2
v 3 2.4 -2
v 1.9 2.4 -2.4
v 2.2 2.4 -2.4
v 2.9 2.4 -2.4
v 3 2.4 -2.4
v 1.9 2.4 -2.5
v 2.2 2.4 -2.5
v 2.8 2.5 -1.7
v 3 2.5 -1.7
v 2.8 2.5 -2
v 3 2.5 -2
v 1.7 2.6 -2.5
v 2.4 2.6 -2.5
v 1.7 2.6 -2.6
v 2.4 2.6 -2.6
v 1.1 2.9 -0.8
v 1.3 2.9 -0.8
v 1.2 2.9 -0.9
v 1.3 2.9 -0.9
v 1.1 2.9 -2.6
v 1.2 2.9 -2.6
v 1.3 2.9 -2.6
v 1.3 3 -0.8
v 3 3 -0.8
v 1.3 3 -0.9
v 1.5 3 -0.9
v 2.9 3 -0.9
v 3 3 -0.9
v 2.9 3 -1
v 1.3 3 -2.6
v 1.5 3 -2.6
v 2.9 3 -2.6
v 3 3 -2.6
v 1.5 3.2 -0.9
v 2.9 3.2 -0.9
v 1.6 3.2 -1
v 2.9 3.2 -1
v 1.7 3.2 -1.3
v 2.7 3.2 -1.3
v 1.7 3.2 -2.5
v 2.7 3.2 -2.5
v 1.5 3.2 -2.6
v 1.6 3.2 -2.6
v 2.9 3.2 -2.6
v 1.7 3.3 -1.3
v 2.7 3.3 -1.3
v 1.7 3.3 -2.5
v 2.7 3.3 -2.5

# faces
f 5/2/1 2/2/1 1/2/1
f 8/2/1 4/2/1 3/2/1
f 9/2/1 6/2/1 5/2/1
f 10/2/1 8/2/1 7/2/1
f 11/2/1 9/2/1 5/2/1
f 11/2/1 10/2/1 9/2/1
f 11/2/1 5/2/1 1/2/1
f 12/2/1 8/2/1 10/2/1
f 12/2/1 10/2/1 11/2/1
f 12/2/1 4/2/1 8/2/1
f 15/1/1 14/1/1 13/1/1
f 16/1/1 14/1/1 15/1/1
f 17/1/1 14/1/1 16/1/1
f 18/1/1 14/1/1 17/1/1
f 19/1/1 17/1/1 16/1/1
f 20/1/1 17/1/1 19/1/1
f 24/2/1 22/2/1 21/2/1
f 25/1/1 23/1/1 22/1/1
f 25/2/1 22/2/1 24/2/1
f 26/1/1 23/1/1 25/1/1
f 29/2/1 28/2/1 27/2/1
f 30/2/1 28/2/1 29/2/1
f 33/1/1 32/1/1 31/1/1
f 34/1/1 32/1/1 33/1/1
f 37/1/1 36/1/1 35/1/1
f 38/1/1 36/1/1 37/1/1
f 41/1/1 40/1/1 39/1/1
f 42/1/1 40/1/1 41/1/1
f 45/1/1 44/1/1 43/1/1
f 46/1/1 44/1/1 45/1/1
f 47/1/2 48/1/2 49/1/2
f 49/1/2 48/1/2 50/1/2
f 51/1/2 52/1/2 53/1/2
f 53/1/2 52/1/2 54/1/2
f 55/1/2 56/1/2 57/1/2
f 57/1/2 56/1/2 58/1/2
f 59/1/2 60/1/2 61/1/2
f 61/1/2 60/1/2 62/1/2
f 63/1/2 64/1/2 67/1/2
f 67/1/2 64/1/2 68/1/2
f 65/1/2 66/1/2 69/1/2
f 69/1/2 66/1/2 70/1/2
f 71/2/2 72/2/2 74/2/2
f 72/1/2 73/1/2 75/1/2
f 74/2/2 72/2/2 75/2/2
f 75/1/2 73/1/2 76/1/2
f 78/1/2 79/1/2 82/1/2
f 80/1/2 81/1/2 85/1/2
f 82/1/2 83/1/2 86/1/2
f 84/1/2 85/1/2 87/1/2
f 77/2/2 78/2/2 88/2/2
f 86/1/2 87/1/2 89/1/2
f 88/2/2 78/2/2 89/2/2
f 82/1/2 86/1/2 89/1/2
f 78/1/2 82/1/2 89/1/2
f 87/1/2 85/1/2 90/1/2
f 89/1/2 87/1/2 90/1/2
f 85/1/2 81/1/2 90/1/2
f 93/2/3 92/2/3 91/2/3
f 95/2/3 93/2/3 91/2/3
f 95/2/3 94/2/3 93/2/3
f 96/2/3 94/2/3 95/2/3
f 99/2/3 98/2/3 97/2/3
f 100/2/3 98/2/3 99/2/3
f 103/1/3 102/1/3 101/1/3
f 104/1/3 102/1/3 103/1/3
f 107/2/3 106/2/3 105/2/3
f 108/2/3 106/2/3 107/2/3
f 111/1/3 110/1/3 109/1/3
f 112/1/3 110/1/3 111/1/3
f 113/1/3 110/1/3 112/1/3
f 114/1/3 110/1/3 113/1/3
f 117/2/3 116/2/3 115/2/3
f 118/2/3 116/2/3 117/2/3
f 121/1/3 120/1/3 119/1/3
f 122/1/3 120/1/3 121/1/3
f 123/2/4 124/2/4 125/2/4
f 125/2/4 124/2/4 126/2/4
f 127/2/4 128/2/4 129/2/4
f 129/2/4 128/2/4 130/2/4
f 131/1/4 132/1/4 133/1/4
f 133/1/4 132/1/4 134/1/4
f 135/1/4 136/1/4 137/1/4
f 137/1/4 136/1/4 138/1/4
f 138/1/4 136/1/4 139/1/4
f 139/1/4 136/1/4 140/1/4
f 141/1/4 142/1/4 143/1/4
f 143/1/4 142/1/4 144/1/4
f 145/1/4 146/1/4 149/1/4
f 149/1/4 146/1/4 150/1/4
f 150/1/4 146/1/4 152/1/4
f 151/1/4 152/1/4 153/1/4
f 152/1/4 146/1/4 154/1/4
f 153/1/4 152/1/4 154/1/4
f 151/1/4 153/1/4 155/1/4
f 155/1/4 153/1/4 156/1/4
f 147/1/4 148/1/4 157/1/4
f 157/1/4 148/1/4 158/1/4
f 159/2/4 160/2/4 161/2/4
f 161/2/4 160/2/4 162/2/4
f 161/1/4 162/1/4 163/1/4
f 163/1/4 164/1/4 165/1/4
f 163/1/4 165/1/4 167/1/4
f 165/2/4 166/2/4 167/2/4
f 167/2/4 166/2/4 168/2/4
f 161/1/4 163/1/4 169/1/4
f 163/1/4 167/1/4 169/1/4
f 167/1/4 168/1/4 169/1/4
f 169/1/4 168/1/4 170/1/4
f 170/1/4 168/1/4 172/1/4
f 171/1/4 172/1/4 174/1/4
f 172/1/4 168/1/4 175/1/4
f 173/1/4 174/1/4 175/1/4
f 174/1/4 172/1/4 175/1/4
f 175/1/4 168/1/4 176/1/4
f 173/1/4 175/1/4 177/1/4
f 177/1/4 175/1/4 178/1/4
f 181/2/5 180/2/5 179/2/5
f 182/2/5 180/2/5 181/2/5
f 183/2/5 181/2/5 179/2/5
f 184/1/5 182/1/5 181/1/5
f 184/2/5 181/2/5 183/2/5
f 185/1/5 182/1/5 184/1/5
f 186/1/5 182/1/5 185/1/5
f 187/1/5 185/1/5 184/1/5
f 188/1/5 185/1/5 187/1/5
f 189/1/5 187/1/5 184/1/5
f 192/1/5 189/1/5 184/1/5
f 192/1/5 190/1/5 189/1/5
f 193/1/5 190/1/5 192/1/5
f 194/1/5 190/1/5 193/1/5
f 195/1/5 190/1/5 194/1/5
f 197/1/5 193/1/5 192/1/5
f 198/1/5 193/1/5 197/1/5
f 199/1/5 195/1/5 194/1/5
f 199/1/5 196/1/5 195/1/5
f 200/1/5 196/1/5 199/1/5
f 201/2/5 192/2/5 191/2/5
f 202/1/5 197/1/5 192/1/5
f 202/2/5 192/2/5 201/2/5
f 203/1/5 197/1/5 202/1/5
f 204/1/5 196/1/5 200/1/5
f 205/1/5 196/1/5 204/1/5
f 208/2/5 207/2/5 206/2/5
f 209/2/5 207/2/5 208/2/5
f 212/2/5 211/2/5 210/2/5
f 213/2/5 211/2/5 212/2/5
f 216/2/5 215/2/5 214/2/5
f 217/2/5 215/2/5 216/2/5
f 220/1/5 219/1/5 218/1/5
f 221/1/5 219/1/5 220/1/5
f 224/1/5 223/1/5 222/1/5
f 225/1/5 223/1/5 224/1/5
f 230/1/5 227/1/5 226/1/5
f 231/1/5 227/1/5 230/1/5
f 232/1/5 229/1/5 228/1/5
f 233/1/5 229/1/5 232/1/5
f 236/1/5 235/1/5 234/1/5
f 237/1/5 235/1/5 236/1/5
f 240/1/5 239/1/5 238/1/5
f 241/1/5 239/1/5 240/1/5
f 242/2/6 243/2/6 244/2/6
f 244/2/6 243/2/6 245/2/6
f 242/2/6 244/2/6 246/2/6
f 244/1/6 245/1/6 247/1/6
f 246/2/6 244/2/6 247/2/6
f 247/1/6 245/1/6 248/1/6
f 249/2/6 250/2/6 251/2/6
f 251/2/6 250/2/6 252/2/6
f 252/2/6 250/2/6 253/2/6
f 253/2/6 250/2/6 254/2/6
f 253/1/6 254/1/6 255/1/6
f 251/1/6 252/1/6 256/1/6
f 256/1/6 252/1/6 257/1/6
f 255/1/6 254/1/6 258/1/6
f 258/1/6 254/1/6 259/1/6
f 260/2/6 261/2/6 262/2/6
f 262/2/6 261/2/6 263/2/6
f 262/1/6 263/1/6 264/1/6
f 264/1/6 263/1/6 265/1/6
f 262/1/6 264/1/6 266/1/6
f 265/1/6 263/1/6 267/1/6
f 260/2/6 262/2/6 268/2/6
f 266/1/6 267/1/6 269/1/6
f 268/2/6 262/2/6 269/2/6
f 262/1/6 266/1/6 269/1/6
f 267/1/6 263/1/6 270/1/6
f 269/1/6 267/1/6 270/1/6
f 271/1/6 272/1/6 273/1/6
f 273/1/6 272/1/6 274/1/6
