# MagicaVoxel @ Ephtracy

# group
o 

# material
mtllib train_post_nolights.mtl
usemtl palette

# normals
vn -1 0 0
vn 1 0 0
vn 0 0 1
vn 0 0 -1
vn 0 -1 0
vn 0 1 0

# texcoords
vt 0.869141 0.5
vt 0.958984 0.5
vt 0.994141 0.5

# verts
v 1.4 4.8 -0.8
v 1.4 4.8 -2.9
v 1.4 5.3 -0.8
v 1.4 5.3 -2.9
v 1.6 2 -1.6
v 1.6 2 -2.1
v 1.6 2.3 -1.6
v 1.6 2.3 -2.1
v 1.6 2.6 -1.6
v 1.6 2.6 -2.1
v 1.6 2.9 -1.6
v 1.6 2.9 -2.1
v 1.6 3.2 -1.6
v 1.6 3.2 -2.1
v 1.6 3.5 -1.6
v 1.6 3.5 -2.1
v 1.6 3.8 -1.6
v 1.6 3.8 -2.1
v 1.6 4.1 -1.6
v 1.6 4.1 -2.1
v 1.6 4.4 -1.6
v 1.6 4.4 -2.1
v 1.6 4.7 -1.6
v 1.6 4.7 -2.1
v 1.6 4.8 -1.6
v 1.6 4.8 -2.1
v 1.6 5.3 -1.6
v 1.6 5.3 -2.1
v 1.6 5.6 -1.6
v 1.6 5.6 -2.1
v 1.6 4.8 -0.8
v 1.6 4.8 -1.6
v 1.6 4.8 -2.1
v 1.6 4.8 -2.9
v 1.6 5 -1.6
v 1.6 5 -2.1
v 1.6 5.3 -0.8
v 1.6 5.3 -1.6
v 1.6 5.3 -2.1
v 1.6 5.3 -2.9
v 2.1 2 -1.6
v 2.1 2 -2.1
v 2.1 2.3 -1.6
v 2.1 2.3 -2.1
v 2.1 2.6 -1.6
v 2.1 2.6 -2.1
v 2.1 2.9 -1.6
v 2.1 2.9 -2.1
v 2.1 3.2 -1.6
v 2.1 3.2 -2.1
v 2.1 3.5 -1.6
v 2.1 3.5 -2.1
v 2.1 3.8 -1.6
v 2.1 3.8 -2.1
v 2.1 4.1 -1.6
v 2.1 4.1 -2.1
v 2.1 4.4 -1.6
v 2.1 4.4 -2.1
v 2.1 4.7 -1.6
v 2.1 4.7 -2.1
v 2.1 5 -1.6
v 2.1 5 -2.1
v 2.1 5.3 -1.6
v 2.1 5.3 -2.1
v 2.1 5.6 -1.6
v 2.1 5.6 -2.1
v 1.4 4.8 -0.8
v 1.4 5.3 -0.8
v 1.6 4.8 -0.8
v 1.6 5.3 -0.8
v 1.6 2 -1.6
v 1.6 2.3 -1.6
v 1.6 2.6 -1.6
v 1.6 2.9 -1.6
v 1.6 3.2 -1.6
v 1.6 3.5 -1.6
v 1.6 3.8 -1.6
v 1.6 4.1 -1.6
v 1.6 4.4 -1.6
v 1.6 4.7 -1.6
v 1.6 4.8 -1.6
v 1.6 5 -1.6
v 1.6 5.3 -1.6
v 1.6 5.6 -1.6
v 2.1 2 -1.6
v 2.1 2.3 -1.6
v 2.1 2.6 -1.6
v 2.1 2.9 -1.6
v 2.1 3.2 -1.6
v 2.1 3.5 -1.6
v 2.1 3.8 -1.6
v 2.1 4.1 -1.6
v 2.1 4.4 -1.6
v 2.1 4.7 -1.6
v 2.1 5 -1.6
v 2.1 5.3 -1.6
v 2.1 5.6 -1.6
v 1.6 2 -2.1
v 1.6 2.3 -2.1
v 1.6 2.6 -2.1
v 1.6 2.9 -2.1
v 1.6 3.2 -2.1
v 1.6 3.5 -2.1
v 1.6 3.8 -2.1
v 1.6 4.1 -2.1
v 1.6 4.4 -2.1
v 1.6 4.7 -2.1
v 1.6 4.8 -2.1
v 1.6 5 -2.1
v 1.6 5.3 -2.1
v 1.6 5.6 -2.1
v 2.1 2 -2.1
v 2.1 2.3 -2.1
v 2.1 2.6 -2.1
v 2.1 2.9 -2.1
v 2.1 3.2 -2.1
v 2.1 3.5 -2.1
v 2.1 3.8 -2.1
v 2.1 4.1 -2.1
v 2.1 4.4 -2.1
v 2.1 4.7 -2.1
v 2.1 5 -2.1
v 2.1 5.3 -2.1
v 2.1 5.6 -2.1
v 1.4 4.8 -2.9
v 1.4 5.3 -2.9
v 1.6 4.8 -2.9
v 1.6 5.3 -2.9
v 1.6 2 -1.6
v 2.1 2 -1.6
v 1.6 2 -2.1
v 2.1 2 -2.1
v 1.4 4.8 -0.8
v 1.6 4.8 -0.8
v 1.6 4.8 -1.6
v 1.6 4.8 -2.1
v 1.4 4.8 -2.9
v 1.6 4.8 -2.9
v 1.4 5.3 -0.8
v 1.6 5.3 -0.8
v 1.6 5.3 -1.6
v 1.6 5.3 -2.1
v 1.4 5.3 -2.9
v 1.6 5.3 -2.9
v 1.6 5.6 -1.6
v 2.1 5.6 -1.6
v 1.6 5.6 -2.1
v 2.1 5.6 -2.1

# faces
f 3/3/1 2/3/1 1/3/1
f 4/3/1 2/3/1 3/3/1
f 7/1/1 6/1/1 5/1/1
f 8/1/1 6/1/1 7/1/1
f 9/2/1 8/2/1 7/2/1
f 10/2/1 8/2/1 9/2/1
f 11/1/1 10/1/1 9/1/1
f 12/1/1 10/1/1 11/1/1
f 13/2/1 12/2/1 11/2/1
f 14/2/1 12/2/1 13/2/1
f 15/1/1 14/1/1 13/1/1
f 16/1/1 14/1/1 15/1/1
f 17/2/1 16/2/1 15/2/1
f 18/2/1 16/2/1 17/2/1
f 19/1/1 18/1/1 17/1/1
f 20/1/1 18/1/1 19/1/1
f 21/2/1 20/2/1 19/2/1
f 22/2/1 20/2/1 21/2/1
f 23/1/1 22/1/1 21/1/1
f 24/1/1 22/1/1 23/1/1
f 25/2/1 24/2/1 23/2/1
f 26/2/1 24/2/1 25/2/1
f 29/2/1 28/2/1 27/2/1
f 30/2/1 28/2/1 29/2/1
f 31/3/2 32/3/2 35/3/2
f 33/3/2 34/3/2 36/3/2
f 31/3/2 35/3/2 37/3/2
f 37/3/2 35/3/2 38/3/2
f 36/3/2 34/3/2 39/3/2
f 39/3/2 34/3/2 40/3/2
f 41/1/2 42/1/2 43/1/2
f 43/1/2 42/1/2 44/1/2
f 43/2/2 44/2/2 45/2/2
f 45/2/2 44/2/2 46/2/2
f 45/1/2 46/1/2 47/1/2
f 47/1/2 46/1/2 48/1/2
f 47/2/2 48/2/2 49/2/2
f 49/2/2 48/2/2 50/2/2
f 49/1/2 50/1/2 51/1/2
f 51/1/2 50/1/2 52/1/2
f 51/2/2 52/2/2 53/2/2
f 53/2/2 52/2/2 54/2/2
f 53/1/2 54/1/2 55/1/2
f 55/1/2 54/1/2 56/1/2
f 55/2/2 56/2/2 57/2/2
f 57/2/2 56/2/2 58/2/2
f 57/1/2 58/1/2 59/1/2
f 59/1/2 58/1/2 60/1/2
f 59/2/2 60/2/2 61/2/2
f 61/2/2 60/2/2 62/2/2
f 61/1/2 62/1/2 63/1/2
f 63/1/2 62/1/2 64/1/2
f 63/2/2 64/2/2 65/2/2
f 65/2/2 64/2/2 66/2/2
f 69/3/3 68/3/3 67/3/3
f 70/3/3 68/3/3 69/3/3
f 85/1/3 72/1/3 71/1/3
f 86/2/3 73/2/3 72/2/3
f 86/1/3 72/1/3 85/1/3
f 87/1/3 74/1/3 73/1/3
f 87/2/3 73/2/3 86/2/3
f 88/2/3 75/2/3 74/2/3
f 88/1/3 74/1/3 87/1/3
f 89/1/3 76/1/3 75/1/3
f 89/2/3 75/2/3 88/2/3
f 90/2/3 77/2/3 76/2/3
f 90/1/3 76/1/3 89/1/3
f 91/1/3 78/1/3 77/1/3
f 91/2/3 77/2/3 90/2/3
f 92/2/3 79/2/3 78/2/3
f 92/1/3 78/1/3 91/1/3
f 93/1/3 80/1/3 79/1/3
f 93/2/3 79/2/3 92/2/3
f 94/2/3 81/2/3 80/2/3
f 94/1/3 80/1/3 93/1/3
f 94/2/3 82/2/3 81/2/3
f 95/1/3 83/1/3 82/1/3
f 95/2/3 82/2/3 94/2/3
f 96/2/3 84/2/3 83/2/3
f 96/1/3 83/1/3 95/1/3
f 97/2/3 84/2/3 96/2/3
f 98/1/4 99/1/4 112/1/4
f 99/2/4 100/2/4 113/2/4
f 112/1/4 99/1/4 113/1/4
f 100/1/4 101/1/4 114/1/4
f 113/2/4 100/2/4 114/2/4
f 101/2/4 102/2/4 115/2/4
f 114/1/4 101/1/4 115/1/4
f 102/1/4 103/1/4 116/1/4
f 115/2/4 102/2/4 116/2/4
f 103/2/4 104/2/4 117/2/4
f 116/1/4 103/1/4 117/1/4
f 104/1/4 105/1/4 118/1/4
f 117/2/4 104/2/4 118/2/4
f 105/2/4 106/2/4 119/2/4
f 118/1/4 105/1/4 119/1/4
f 106/1/4 107/1/4 120/1/4
f 119/2/4 106/2/4 120/2/4
f 107/2/4 108/2/4 121/2/4
f 120/1/4 107/1/4 121/1/4
f 108/2/4 109/2/4 121/2/4
f 109/1/4 110/1/4 122/1/4
f 121/2/4 109/2/4 122/2/4
f 110/2/4 111/2/4 123/2/4
f 122/1/4 110/1/4 123/1/4
f 123/2/4 111/2/4 124/2/4
f 125/3/4 126/3/4 127/3/4
f 127/3/4 126/3/4 128/3/4
f 131/1/5 130/1/5 129/1/5
f 132/1/5 130/1/5 131/1/5
f 135/3/5 134/3/5 133/3/5
f 136/3/5 135/3/5 133/3/5
f 137/3/5 136/3/5 133/3/5
f 138/3/5 136/3/5 137/3/5
f 139/3/6 140/3/6 141/3/6
f 139/3/6 141/3/6 142/3/6
f 139/3/6 142/3/6 143/3/6
f 143/3/6 142/3/6 144/3/6
f 145/2/6 146/2/6 147/2/6
f 147/2/6 146/2/6 148/2/6
